<svg xmlns="http://www.w3.org/2000/svg" height="20" viewBox="0 -960 960 960" width="20">
    <path fill="white"
        d="M459.957-76.782q-37.628 0-64.423-26.463-26.796-26.463-26.796-63.625v-151.173h-98.52q-40.193 0-68.815-28.621-28.621-28.622-28.621-68.815V-649.39q0-82.48 53.022-134.154 53.022-51.674 134.502-51.674h377.912q20.387 0 34.694 14.306 14.306 14.307 14.306 34.694v370.739q0 40.193-28.565 68.815-28.566 28.621-68.871 28.621h-97.955v151.173q0 37.162-27.145 63.625-27.146 26.463-64.073 26.463h-40.652Zm-189.739-479.74h419.564v-181.26h-48.565v87.953q0 15.503-10.452 26.166-10.452 10.662-25.903 10.662-15.45 0-26.113-10.512-10.662-10.513-10.662-26.053v-88.216h-49.131v34.173q0 15.541-10.452 26.053-10.452 10.513-25.903 10.513-15.45 0-26.113-10.657-10.662-10.656-10.662-26.409v-33.673h-85.52q-41.005 0-65.547 23.326-24.541 23.326-24.541 65.066v92.868Z" />
</svg>